<mxfile host="app.diagrams.net" modified="2023-05-09T01:58:57.260Z" agent="Mozilla/5.0 (Macintosh; Intel Mac OS X 10_15_7) AppleWebKit/537.36 (KHTML, like Gecko) Chrome/112.0.0.0 Safari/537.36" version="21.2.9" etag="UfA9RU7wRX5Jl5QyA9gH" type="github">
  <diagram name="Page-1" id="OK_TWgsYm30rYQALxzcY">
    <mxGraphModel>
      <root>
        <mxCell id="0" />
        <mxCell id="1" parent="0" />
      </root>
    </mxGraphModel>
  </diagram>
</mxfile>
